<?xml version="1.0" encoding="utf-8"?>
<!-- Generator: Adobe Illustrator 24.0.3, SVG Export Plug-In . SVG Version: 6.00 Build 0)  -->
<svg version="1.1" id="Layer_1" xmlns="http://www.w3.org/2000/svg" xmlns:xlink="http://www.w3.org/1999/xlink" x="0px" y="0px"
	 viewBox="0 0 447.89 84.96" style="enable-background:new 0 0 447.89 84.96;" xml:space="preserve">
<style type="text/css">
	.st0{fill:#151428;}
	.st1{fill:#484AEE;}
	.st2{opacity:0.5;}
	.st3{fill:#FFFFFF;}
</style>
<g>
	<path class="st0" d="M140.81,57.81h-8.4l-2.12-5.86h-14.82l-2.18,5.86h-8.39l13.37-34.56h9.22L140.81,57.81z M128.27,45.47
		l-5.39-14.87l-5.39,14.87H128.27z"/>
	<path class="st0" d="M173.04,58.43c-6.15,0-11.02-1.83-14.61-5.49l3.99-5.6c2.97,3.11,6.63,4.66,10.99,4.66
		c1.9,0,3.38-0.37,4.43-1.11c1.05-0.74,1.58-1.65,1.58-2.72c0-0.93-0.49-1.71-1.48-2.33c-0.99-0.62-2.21-1.07-3.68-1.35
		c-1.47-0.28-3.07-0.67-4.79-1.19c-1.73-0.52-3.33-1.1-4.79-1.76c-1.47-0.66-2.7-1.69-3.68-3.11c-0.99-1.42-1.48-3.14-1.48-5.18
		c0-2.97,1.19-5.47,3.58-7.49c2.38-2.02,5.56-3.03,9.53-3.03c5.49,0,9.98,1.61,13.47,4.82l-4.09,5.39
		c-2.73-2.52-6.08-3.78-10.05-3.78c-1.55,0-2.76,0.31-3.63,0.93c-0.86,0.62-1.3,1.47-1.3,2.54c0,0.83,0.49,1.53,1.48,2.1
		c0.98,0.57,2.21,0.99,3.68,1.27c1.47,0.28,3.06,0.68,4.77,1.22c1.71,0.54,3.3,1.14,4.77,1.81c1.47,0.67,2.69,1.73,3.68,3.16
		c0.98,1.43,1.48,3.15,1.48,5.16c0,3.32-1.18,5.99-3.55,8.03C180.96,57.41,177.53,58.43,173.04,58.43z"/>
	<path class="st0" d="M216.31,57.81h-7.36V23.24h16.17c3.63,0,6.47,1.06,8.52,3.19c2.05,2.12,3.08,4.78,3.08,7.95
		c0,3.14-1.04,5.79-3.11,7.93c-2.07,2.14-4.91,3.21-8.5,3.21h-8.81V57.81z M224.14,39.05c1.49,0,2.7-0.42,3.65-1.27
		c0.95-0.84,1.42-1.98,1.42-3.39c0-1.42-0.47-2.55-1.42-3.39c-0.95-0.85-2.17-1.27-3.65-1.27h-7.82v9.33H224.14z"/>
	<path class="st0" d="M265.75,57.81h-7.36V23.24h7.36V57.81z"/>
	<path class="st0" d="M317.67,57.81h-8.45l-6.79-12.28h-5.39v12.28h-7.36V23.24h16.17c3.56,0,6.38,1.04,8.47,3.11
		c2.09,2.07,3.13,4.75,3.13,8.03c0,2.83-0.73,5.13-2.2,6.89c-1.47,1.76-3.26,2.88-5.36,3.37L317.67,57.81z M304.77,39.05
		c1.52,0,2.76-0.42,3.73-1.27c0.97-0.84,1.45-1.98,1.45-3.39c0-1.42-0.48-2.55-1.45-3.39s-2.21-1.27-3.73-1.27h-7.72v9.33H304.77z"
		/>
	<path class="st0" d="M364.57,57.81h-24.46V23.24h24.46v6.48h-17.1v7.31h16.74v6.48h-16.74v7.82h17.1V57.81z"/>
	<path class="st0" d="M401.05,57.81h-13.63V23.24h13.63c5.42,0,9.84,1.59,13.24,4.77c3.4,3.18,5.1,7.36,5.1,12.54
		c0,5.18-1.69,9.35-5.08,12.51C410.93,56.23,406.5,57.81,401.05,57.81z M401.05,51.33c3.32,0,5.95-1.04,7.9-3.11
		c1.95-2.07,2.93-4.63,2.93-7.67c0-3.18-0.95-5.78-2.85-7.8c-1.9-2.02-4.56-3.03-7.98-3.03h-6.27v21.61H401.05z"/>
	<path class="st1" d="M446.65,57.13c-0.83,0.83-1.81,1.24-2.95,1.24c-1.14,0-2.13-0.41-2.95-1.24c-0.83-0.83-1.24-1.81-1.24-2.95
		c0-1.14,0.42-2.12,1.24-2.95c0.83-0.83,1.81-1.24,2.95-1.24c1.14,0,2.12,0.41,2.95,1.24c0.83,0.83,1.24,1.81,1.24,2.95
		C447.89,55.32,447.48,56.3,446.65,57.13z"/>
</g>
<g>
	<circle class="st1" cx="42.48" cy="42.48" r="42.48"/>
</g>
<g class="st2">
	<path class="st3" d="M40.65,63.3c-11.75,0-21.31-9.56-21.31-21.31s9.56-21.31,21.31-21.31c11.75,0,21.31,9.56,21.31,21.31
		S52.4,63.3,40.65,63.3z M40.65,29.82c-6.71,0-12.17,5.46-12.17,12.17c0,6.71,5.46,12.17,12.17,12.17s12.17-5.46,12.17-12.17
		C52.83,35.28,47.36,29.82,40.65,29.82z"/>
</g>
<g>
	<rect x="52.83" y="20.84" class="st3" width="9.14" height="42.57"/>
</g>
</svg>
