<svg xmlns="http://www.w3.org/2000/svg" version="1.0" width="17px" height="17px" viewBox="0 0 51.000000 51.000000" preserveAspectRatio="xMidYMid meet">
<g transform="translate(0.000000,51.000000) scale(0.100000,-0.100000)" fill="#111029" stroke="none">
<path d="M54 498 c-35 -16 -45 -51 -34 -110 33 -171 172 -318 344 -364 72 -19 93 -17 121 11 33 32 36 119 5 157 -32 42 -139 61 -171 32 -16 -15 -21 -13 -60 24 -41 38 -42 40 -30 70 20 48 5 129 -29 164 -24 23 -37 28 -77 27 -26 0 -58 -5 -69 -11z m120 -95 c7 -35 5 -46 -12 -68 -20 -25 -21 -29 -6 -57 19 -36 90 -107 127 -127 25 -13 29 -13 51 8 21 20 29 22 67 14 l44 -9 0 -44 0 -45 -40 3 c-92 6 -222 97 -278 193 -28 47 -60 156 -51 171 3 5 25 8 47 6 40 -3 42 -5 51 -45z"></path>
</g>
</svg>