<svg xmlns="http://www.w3.org/2000/svg" xmlns:xlink="http://www.w3.org/1999/xlink" width="20" height="21" viewBox="0 0 20 21">
    <defs>
        <path id="c7d96tma6a" d="M0 0.076L20 0.076 20 20 0 20z"/>
    </defs>
    <g fill="none" fill-rule="evenodd">
        <g>
            <g>
                <path fill="#4B34FB" d="M9.998 7.668c-.045 0-.045 0-.87.073-.565.05-1.011.497-1.061 1.064l-.02.263-.2-.12c-.187-.108-.39-.163-.597-.163-.354 0-.684.158-.905.434l-.236.28-.251.306c-.362.434-.355 1.069.02 1.504l.166.193-.23.06c-.553.148-.916.666-.867 1.232l.07.782c.052.567.499 1.01 1.062 1.06l.27.022-.122.208c-.291.495-.172 1.139.276 1.497l.577.483c.21.176.476.27.746.27.28 0 .55-.1.764-.284l.178-.151.057.22c.14.519.605.874 1.13.874H10l.045-.003.795-.071c.564-.05 1.01-.496 1.06-1.062l.02-.264.22.128c.169.1.376.158.587.158.355 0 .685-.16.907-.435l.483-.578c.366-.438.36-1.073-.012-1.507l-.164-.193.243-.062c.56-.156.92-.675.869-1.24l-.07-.767-.002-.031-.004-.031c-.082-.536-.513-.946-1.05-.998l-.273-.021.127-.218c.288-.493.17-1.135-.274-1.493l-.581-.485c-.205-.173-.472-.271-.745-.271-.278 0-.547.1-.76.28l-.204.175-.011-.004-.063-.243c-.141-.523-.6-.871-1.145-.871m0 1c.093 0 .157.05.177.125l.219.835.085.013c.297.044.583.13.85.26l.077.038.663-.566c.033-.026.072-.042.112-.042.038 0 .075.014.104.038l.596.497c.062.05.077.14.036.21l-.44.754.05.068c.17.232.306.49.406.77l.028.08.869.066c.078.008.146.073.158.154l.069.77c.007.083-.044.157-.125.18l-.842.219-.014.083c-.047.29-.135.57-.26.832l-.036.077.566.662c.054.064.055.153.004.216l-.498.595c-.03.038-.077.059-.125.059-.03 0-.06-.008-.084-.022l-.754-.44-.07.05c-.23.17-.49.306-.768.405l-.08.029-.067.868c-.007.082-.071.147-.153.154l-.795.07c-.077 0-.143-.05-.163-.126l-.22-.841-.083-.014c-.276-.046-.55-.131-.81-.253l-.077-.035-.667.568c-.03.028-.07.042-.11.042-.04 0-.075-.012-.104-.038l-.595-.497c-.064-.05-.078-.14-.037-.21l.436-.746-.05-.068c-.176-.25-.313-.507-.406-.77l-.028-.078-.875-.068c-.081-.007-.147-.073-.154-.155l-.07-.778c-.007-.083.044-.157.125-.18l.834-.217.013-.084c.046-.288.132-.567.254-.83l.035-.077-.568-.666c-.055-.062-.056-.153-.004-.215l.245-.297.248-.297c.03-.04.075-.06.125-.06.029 0 .059.008.084.023l.744.444.069-.05c.247-.177.506-.313.769-.406l.08-.028.067-.876c.007-.081.072-.147.154-.155l.78-.07" transform="translate(-1002 -185) translate(1002 184.21)"/>
                <path fill="#4B34FB" d="M10.025 11.206c-.045 0-.09.002-.136.006-.4.036-.764.226-1.023.536-.259.31-.382.7-.345 1.103.067.77.726 1.374 1.501 1.374.045 0 .091-.002.137-.006.4-.034.762-.224 1.021-.533.26-.31.383-.703.347-1.105-.066-.771-.727-1.375-1.502-1.375m0 1c.257 0 .483.207.506.464.013.139-.028.268-.116.374-.089.105-.207.167-.393.18-.257 0-.483-.206-.506-.463-.012-.137.03-.266.117-.372.09-.106.208-.168.348-.181l.044-.002" transform="translate(-1002 -185) translate(1002 184.21)"/>
                <g transform="translate(-1002 -185) translate(1002 184.21) translate(0 .924)">
                    <mask id="o9gyag5t6b" fill="#fff">
                        <use xlink:href="#c7d96tma6a"/>
                    </mask>
                    <path fill="#4B34FB" d="M10 .075L0 8.76l1.023 1.178.859-.745v8.465C1.882 18.95 2.932 20 4.224 20h11.552c1.292 0 2.342-1.05 2.342-2.342V9.193l.859.745L20 8.76 10 .075zM10 1.4l7.86 6.826c-.052.015-.105.034-.157.057-.356.163-.585.52-.585.91v8.465c0 .74-.601 1.342-1.342 1.342H4.224c-.74 0-1.342-.603-1.342-1.342V9.193c0-.39-.23-.747-.585-.91-.052-.023-.105-.042-.158-.057L9.999 1.4z" mask="url(#o9gyag5t6b)"/>
                </g>
            </g>
        </g>
    </g>
</svg>
